<svg xmlns="http://www.w3.org/2000/svg" xmlns:xlink="http://www.w3.org/1999/xlink" width="529" zoomAndPan="magnify" viewBox="0 0 396.75 101.249998" height="135" preserveAspectRatio="xMidYMid meet" version="1.0"><defs><filter x="0%" y="0%" width="100%" height="100%" id="1d5b7d3c21"><feColorMatrix values="0 0 0 0 1 0 0 0 0 1 0 0 0 0 1 0 0 0 1 0" color-interpolation-filters="sRGB"/></filter><g/><clipPath id="75842bd402"><path d="M 1.335938 10 L 382 10 L 382 97 L 1.335938 97 Z M 1.335938 10 " clip-rule="nonzero"/></clipPath><clipPath id="40388e4090"><path d="M 0.335938 0.160156 L 97.8125 0.160156 L 97.8125 86.472656 L 0.335938 86.472656 Z M 0.335938 0.160156 " clip-rule="nonzero"/></clipPath><mask id="0047143e51"><g filter="url(#1d5b7d3c21)"><rect x="-88.285" width="571.32" fill="#000000" y="-32.275" height="145.799997" fill-opacity="0.8"/></g></mask><clipPath id="b34a50a689"><rect x="0" width="158" y="0" height="24"/></clipPath><clipPath id="073e91643c"><rect x="0" width="381" y="0" height="87"/></clipPath></defs><g clip-path="url(#75842bd402)"><g transform="matrix(1, 0, 0, 1, 1, 10)"><g clip-path="url(#073e91643c)"><g clip-path="url(#40388e4090)"><path fill="#6750a4" d="M 40.4375 36.855469 L 44.847656 39.867188 C 45.074219 39.453125 45.511719 39.171875 46.015625 39.171875 L 52.738281 39.171875 C 53.46875 39.171875 54.070312 39.773438 54.070312 40.503906 L 54.070312 47.226562 C 54.070312 47.960938 53.46875 48.558594 52.738281 48.558594 L 49.480469 48.558594 L 46.648438 54.136719 L 47.214844 54.136719 C 48.15625 54.136719 48.925781 54.90625 48.925781 55.847656 L 48.925781 59.585938 L 58.421875 59.742188 L 58.421875 59.507812 C 58.421875 58.953125 58.878906 58.496094 59.4375 58.496094 L 64.558594 58.496094 C 65.117188 58.496094 65.570312 58.949219 65.570312 59.507812 L 65.570312 64.632812 C 65.570312 65.1875 65.117188 65.644531 64.558594 65.644531 L 59.4375 65.644531 C 58.878906 65.644531 58.421875 65.191406 58.421875 64.632812 L 58.421875 62.265625 L 48.925781 62.113281 L 48.925781 64.496094 C 48.925781 65.4375 48.15625 66.207031 47.214844 66.207031 L 38.570312 66.207031 C 37.628906 66.207031 36.859375 65.4375 36.859375 64.496094 L 36.859375 55.851562 C 36.859375 54.910156 37.628906 54.140625 38.570312 54.140625 L 43.816406 54.140625 L 46.644531 48.558594 L 46.015625 48.558594 C 45.28125 48.558594 44.683594 47.960938 44.683594 47.230469 L 44.683594 42.816406 L 40.183594 39.742188 C 39.820312 40.402344 39.121094 40.851562 38.316406 40.851562 L 27.59375 40.851562 C 26.425781 40.851562 25.472656 39.898438 25.472656 38.726562 L 25.472656 28.003906 C 25.472656 26.835938 26.429688 25.882812 27.59375 25.882812 L 38.316406 25.882812 C 39.488281 25.882812 40.441406 26.839844 40.441406 28.003906 L 40.441406 36.855469 Z M 16.925781 23.644531 L 11.058594 31.039062 L 11.058594 38.324219 C 11.058594 38.679688 10.9375 39.003906 10.730469 39.265625 L 14.953125 44.3125 L 22.339844 44.3125 C 23.507812 44.3125 24.464844 45.265625 24.464844 46.433594 L 24.464844 57.15625 C 24.464844 58.328125 23.507812 59.28125 22.339844 59.28125 L 11.617188 59.28125 C 10.449219 59.28125 9.496094 58.328125 9.496094 57.15625 L 9.496094 46.433594 C 9.496094 45.265625 10.449219 44.3125 11.617188 44.3125 L 11.652344 44.3125 L 7.914062 39.84375 L 1.855469 39.84375 C 1.019531 39.84375 0.335938 39.160156 0.335938 38.324219 L 0.335938 30.640625 C 0.335938 29.804688 1.019531 29.121094 1.855469 29.121094 L 9.351562 29.121094 L 13.75 23.574219 C 12.847656 23.332031 12.175781 22.503906 12.175781 21.523438 L 12.175781 10.800781 C 12.175781 9.632812 13.128906 8.675781 14.296875 8.675781 L 25.019531 8.675781 C 26.1875 8.675781 27.140625 9.632812 27.140625 10.800781 L 27.140625 21.523438 C 27.140625 22.691406 26.1875 23.644531 25.019531 23.644531 Z M 69.613281 76.484375 L 76.191406 69.214844 L 76.1875 69.128906 L 76.1875 56.804688 C 76.1875 56.148438 76.453125 55.550781 76.878906 55.109375 L 73.417969 51.09375 C 73.300781 51.117188 73.179688 51.125 73.058594 51.125 L 62.332031 51.125 C 61.164062 51.125 60.210938 50.171875 60.210938 49 L 60.210938 38.277344 C 60.210938 37.109375 61.164062 36.15625 62.332031 36.15625 L 73.058594 36.15625 C 74.226562 36.15625 75.179688 37.109375 75.179688 38.277344 L 75.179688 49 C 75.179688 49.089844 75.171875 49.171875 75.164062 49.257812 L 79.570312 54.367188 L 90.945312 54.367188 C 92.289062 54.367188 93.382812 55.464844 93.382812 56.804688 L 93.382812 69.125 C 93.382812 70.46875 92.285156 71.5625 90.945312 71.5625 L 78.625 71.5625 C 78.28125 71.5625 77.949219 71.492188 77.648438 71.359375 L 71.601562 78.042969 L 71.601562 85.304688 C 71.601562 86.105469 70.945312 86.761719 70.144531 86.761719 L 62.78125 86.761719 C 61.980469 86.761719 61.324219 86.105469 61.324219 85.304688 L 61.324219 77.941406 C 61.324219 77.140625 61.980469 76.484375 62.78125 76.484375 Z M 89.945312 34.707031 L 85.945312 26.992188 L 80.640625 26.992188 C 79.785156 26.992188 79.089844 26.292969 79.089844 25.441406 L 79.089844 17.601562 C 79.089844 16.746094 79.785156 16.050781 80.640625 16.050781 L 88.480469 16.050781 C 89.332031 16.050781 90.03125 16.746094 90.03125 17.601562 L 90.03125 25.441406 C 90.03125 26.191406 89.488281 26.824219 88.777344 26.964844 L 92.792969 34.707031 L 96.636719 34.707031 C 97.488281 34.707031 98.1875 35.402344 98.1875 36.253906 L 98.1875 44.09375 C 98.1875 44.949219 97.488281 45.644531 96.636719 45.644531 L 88.796875 45.644531 C 87.941406 45.644531 87.246094 44.949219 87.246094 44.09375 L 87.246094 36.253906 C 87.246094 35.402344 87.941406 34.707031 88.796875 34.707031 Z M 40.214844 0.1875 L 50.9375 0.1875 C 52.105469 0.1875 53.058594 1.140625 53.058594 2.308594 L 53.058594 13.03125 C 53.058594 14.203125 52.105469 15.15625 50.9375 15.15625 L 48.9375 15.15625 L 51.167969 20.632812 L 56.757812 20.632812 C 56.859375 20.632812 56.953125 20.640625 57.046875 20.660156 L 60.425781 17.808594 C 60.015625 17.421875 59.761719 16.875 59.761719 16.273438 L 59.761719 5.550781 C 59.761719 4.378906 60.71875 3.425781 61.882812 3.425781 L 72.609375 3.425781 C 73.777344 3.425781 74.730469 4.378906 74.730469 5.550781 L 74.730469 16.273438 C 74.730469 17.441406 73.777344 18.394531 72.609375 18.394531 L 63.648438 18.394531 L 58.304688 22.90625 L 58.304688 30.023438 C 58.304688 30.875 57.609375 31.574219 56.753906 31.574219 L 48.914062 31.574219 C 48.0625 31.574219 47.363281 30.875 47.363281 30.023438 L 47.363281 22.183594 C 47.363281 21.484375 47.828125 20.894531 48.460938 20.699219 L 46.203125 15.15625 L 40.214844 15.15625 C 39.042969 15.15625 38.089844 14.199219 38.089844 13.03125 L 38.089844 2.308594 C 38.09375 1.140625 39.046875 0.1875 40.214844 0.1875 Z M 40.214844 0.1875 " fill-opacity="1" fill-rule="evenodd"/></g><g fill="#1c1b1f" fill-opacity="1"><g transform="translate(116.16562, 41.824729)"><g><path d="M 2.75 0 L 2.75 -30.78125 L 13.53125 -30.78125 C 17.257812 -30.78125 20.085938 -30.0625 22.015625 -28.625 C 23.953125 -27.195312 24.921875 -25.101562 24.921875 -22.34375 C 24.921875 -20.832031 24.53125 -19.503906 23.75 -18.359375 C 22.976562 -17.210938 21.90625 -16.367188 20.53125 -15.828125 C 22.101562 -15.441406 23.34375 -14.648438 24.25 -13.453125 C 25.164062 -12.253906 25.625 -10.785156 25.625 -9.046875 C 25.625 -6.085938 24.675781 -3.847656 22.78125 -2.328125 C 20.894531 -0.804688 18.207031 -0.03125 14.71875 0 Z M 9.09375 -13.40625 L 9.09375 -5.09375 L 14.53125 -5.09375 C 16.019531 -5.09375 17.179688 -5.445312 18.015625 -6.15625 C 18.859375 -6.875 19.28125 -7.859375 19.28125 -9.109375 C 19.28125 -11.929688 17.820312 -13.363281 14.90625 -13.40625 Z M 9.09375 -17.890625 L 13.78125 -17.890625 C 16.976562 -17.941406 18.578125 -19.21875 18.578125 -21.71875 C 18.578125 -23.113281 18.171875 -24.113281 17.359375 -24.71875 C 16.554688 -25.332031 15.28125 -25.640625 13.53125 -25.640625 L 9.09375 -25.640625 Z M 9.09375 -17.890625 "/></g></g></g><g fill="#1c1b1f" fill-opacity="1"><g transform="translate(143.787462, 41.824729)"><g><path d="M 14.140625 -11.265625 L 9.09375 -11.265625 L 9.09375 0 L 2.75 0 L 2.75 -30.78125 L 14.1875 -30.78125 C 17.820312 -30.78125 20.625 -29.96875 22.59375 -28.34375 C 24.570312 -26.726562 25.5625 -24.441406 25.5625 -21.484375 C 25.5625 -19.378906 25.101562 -17.625 24.1875 -16.21875 C 23.28125 -14.820312 21.90625 -13.707031 20.0625 -12.875 L 26.71875 -0.296875 L 26.71875 0 L 19.921875 0 Z M 9.09375 -16.40625 L 14.203125 -16.40625 C 15.796875 -16.40625 17.03125 -16.8125 17.90625 -17.625 C 18.78125 -18.4375 19.21875 -19.550781 19.21875 -20.96875 C 19.21875 -22.425781 18.804688 -23.566406 17.984375 -24.390625 C 17.160156 -25.222656 15.894531 -25.640625 14.1875 -25.640625 L 9.09375 -25.640625 Z M 9.09375 -16.40625 "/></g></g></g><g fill="#1c1b1f" fill-opacity="1"><g transform="translate(171.409305, 41.824729)"><g><path d="M 20.125 -6.34375 L 9 -6.34375 L 6.890625 0 L 0.140625 0 L 11.609375 -30.78125 L 17.484375 -30.78125 L 29 0 L 22.265625 0 Z M 10.71875 -11.484375 L 18.40625 -11.484375 L 14.546875 -23 Z M 10.71875 -11.484375 "/></g></g></g><g fill="#1c1b1f" fill-opacity="1"><g transform="translate(200.531645, 41.824729)"><g><path d="M 9.5 0 L 3.15625 0 L 3.15625 -30.78125 L 9.5 -30.78125 Z M 9.5 0 "/></g></g></g><g fill="#1c1b1f" fill-opacity="1"><g transform="translate(213.148508, 41.824729)"><g><path d="M 27.78125 0 L 21.4375 0 L 9.09375 -20.25 L 9.09375 0 L 2.75 0 L 2.75 -30.78125 L 9.09375 -30.78125 L 21.453125 -10.484375 L 21.453125 -30.78125 L 27.78125 -30.78125 Z M 27.78125 0 "/></g></g></g><g fill="#1c1b1f" fill-opacity="1"><g transform="translate(243.707944, 41.824729)"><g><path d="M 14.125 -7.625 L 21.09375 -30.78125 L 28.15625 -30.78125 L 17.4375 0 L 10.828125 0 L 0.140625 -30.78125 L 7.1875 -30.78125 Z M 14.125 -7.625 "/></g></g></g><g fill="#1c1b1f" fill-opacity="1"><g transform="translate(272.006067, 41.824729)"><g><path d="M 20.125 -6.34375 L 9 -6.34375 L 6.890625 0 L 0.140625 0 L 11.609375 -30.78125 L 17.484375 -30.78125 L 29 0 L 22.265625 0 Z M 10.71875 -11.484375 L 18.40625 -11.484375 L 14.546875 -23 Z M 10.71875 -11.484375 "/></g></g></g><g fill="#1c1b1f" fill-opacity="1"><g transform="translate(301.128407, 41.824729)"><g><path d="M 26.046875 -30.78125 L 26.046875 -10.5 C 26.046875 -7.132812 24.988281 -4.472656 22.875 -2.515625 C 20.769531 -0.554688 17.894531 0.421875 14.25 0.421875 C 10.65625 0.421875 7.800781 -0.523438 5.6875 -2.421875 C 3.570312 -4.328125 2.492188 -6.945312 2.453125 -10.28125 L 2.453125 -30.78125 L 8.796875 -30.78125 L 8.796875 -10.46875 C 8.796875 -8.445312 9.273438 -6.972656 10.234375 -6.046875 C 11.203125 -5.128906 12.539062 -4.671875 14.25 -4.671875 C 17.8125 -4.671875 19.625 -6.546875 19.6875 -10.296875 L 19.6875 -30.78125 Z M 26.046875 -30.78125 "/></g></g></g><g fill="#1c1b1f" fill-opacity="1"><g transform="translate(329.616733, 41.824729)"><g><path d="M 9.09375 -5.09375 L 22.5625 -5.09375 L 22.5625 0 L 2.75 0 L 2.75 -30.78125 L 9.09375 -30.78125 Z M 9.09375 -5.09375 "/></g></g></g><g fill="#1c1b1f" fill-opacity="1"><g transform="translate(353.054088, 41.824729)"><g><path d="M 25.921875 -25.640625 L 16.484375 -25.640625 L 16.484375 0 L 10.140625 0 L 10.140625 -25.640625 L 0.84375 -25.640625 L 0.84375 -30.78125 L 25.921875 -30.78125 Z M 25.921875 -25.640625 "/></g></g></g><g mask="url(#0047143e51)"><g transform="matrix(1, 0, 0, 1, 117, 61)"><g clip-path="url(#b34a50a689)"><g fill="#49454e" fill-opacity="1"><g transform="translate(0.974324, 18.261537)"><g><path d="M 5.671875 -6.703125 L 9.1875 -13.46875 L 11.203125 -13.46875 L 6.5625 -5.03125 L 6.5625 0 L 4.78125 0 L 4.78125 -5.03125 L 0.140625 -13.46875 L 2.171875 -13.46875 Z M 5.671875 -6.703125 "/></g></g></g><g fill="#49454e" fill-opacity="1"><g transform="translate(12.351701, 18.261537)"><g><path d="M 0.84375 -5.09375 C 0.84375 -6.082031 1.035156 -6.96875 1.421875 -7.75 C 1.804688 -8.53125 2.34375 -9.132812 3.03125 -9.5625 C 3.71875 -9.988281 4.503906 -10.203125 5.390625 -10.203125 C 6.753906 -10.203125 7.851562 -9.726562 8.6875 -8.78125 C 9.53125 -7.832031 9.953125 -6.578125 9.953125 -5.015625 L 9.953125 -4.890625 C 9.953125 -3.921875 9.765625 -3.046875 9.390625 -2.265625 C 9.023438 -1.492188 8.492188 -0.890625 7.796875 -0.453125 C 7.097656 -0.0234375 6.300781 0.1875 5.40625 0.1875 C 4.050781 0.1875 2.953125 -0.28125 2.109375 -1.21875 C 1.265625 -2.164062 0.84375 -3.421875 0.84375 -4.984375 Z M 2.5625 -4.890625 C 2.5625 -3.785156 2.816406 -2.894531 3.328125 -2.21875 C 3.847656 -1.550781 4.539062 -1.21875 5.40625 -1.21875 C 6.269531 -1.21875 6.957031 -1.554688 7.46875 -2.234375 C 7.988281 -2.910156 8.25 -3.863281 8.25 -5.09375 C 8.25 -6.195312 7.988281 -7.085938 7.46875 -7.765625 C 6.945312 -8.453125 6.253906 -8.796875 5.390625 -8.796875 C 4.546875 -8.796875 3.863281 -8.457031 3.34375 -7.78125 C 2.820312 -7.113281 2.5625 -6.148438 2.5625 -4.890625 Z M 2.5625 -4.890625 "/></g></g></g><g fill="#49454e" fill-opacity="1"><g transform="translate(23.155583, 18.261537)"><g><path d="M 7.484375 -0.984375 C 6.816406 -0.203125 5.835938 0.1875 4.546875 0.1875 C 3.472656 0.1875 2.65625 -0.117188 2.09375 -0.734375 C 1.539062 -1.359375 1.265625 -2.28125 1.265625 -3.5 L 1.265625 -10.015625 L 2.96875 -10.015625 L 2.96875 -3.546875 C 2.96875 -2.023438 3.585938 -1.265625 4.828125 -1.265625 C 6.128906 -1.265625 7 -1.753906 7.4375 -2.734375 L 7.4375 -10.015625 L 9.140625 -10.015625 L 9.140625 0 L 7.515625 0 Z M 7.484375 -0.984375 "/></g></g></g><g fill="#49454e" fill-opacity="1"><g transform="translate(33.59872, 18.261537)"><g><path d="M 6.140625 -8.484375 C 5.878906 -8.523438 5.597656 -8.546875 5.296875 -8.546875 C 4.171875 -8.546875 3.40625 -8.066406 3 -7.109375 L 3 0 L 1.296875 0 L 1.296875 -10.015625 L 2.96875 -10.015625 L 2.984375 -8.859375 C 3.546875 -9.753906 4.34375 -10.203125 5.375 -10.203125 C 5.707031 -10.203125 5.960938 -10.15625 6.140625 -10.0625 Z M 6.140625 -8.484375 "/></g></g></g><g fill="#49454e" fill-opacity="1"><g transform="translate(40.0089, 18.261537)"><g/></g></g><g fill="#49454e" fill-opacity="1"><g transform="translate(44.698599, 18.261537)"><g><path d="M 5.53125 -6 C 4.007812 -6.4375 2.898438 -6.972656 2.203125 -7.609375 C 1.515625 -8.253906 1.171875 -9.046875 1.171875 -9.984375 C 1.171875 -11.046875 1.59375 -11.921875 2.4375 -12.609375 C 3.289062 -13.304688 4.394531 -13.65625 5.75 -13.65625 C 6.675781 -13.65625 7.5 -13.476562 8.21875 -13.125 C 8.945312 -12.769531 9.507812 -12.273438 9.90625 -11.640625 C 10.300781 -11.015625 10.5 -10.328125 10.5 -9.578125 L 8.71875 -9.578125 C 8.71875 -10.390625 8.457031 -11.03125 7.9375 -11.5 C 7.414062 -11.96875 6.6875 -12.203125 5.75 -12.203125 C 4.875 -12.203125 4.191406 -12.007812 3.703125 -11.625 C 3.210938 -11.238281 2.96875 -10.703125 2.96875 -10.015625 C 2.96875 -9.460938 3.195312 -8.992188 3.65625 -8.609375 C 4.125 -8.234375 4.914062 -7.890625 6.03125 -7.578125 C 7.15625 -7.265625 8.03125 -6.914062 8.65625 -6.53125 C 9.289062 -6.15625 9.757812 -5.710938 10.0625 -5.203125 C 10.375 -4.703125 10.53125 -4.109375 10.53125 -3.421875 C 10.53125 -2.328125 10.101562 -1.453125 9.25 -0.796875 C 8.40625 -0.140625 7.269531 0.1875 5.84375 0.1875 C 4.914062 0.1875 4.050781 0.0078125 3.25 -0.34375 C 2.445312 -0.695312 1.828125 -1.179688 1.390625 -1.796875 C 0.953125 -2.421875 0.734375 -3.125 0.734375 -3.90625 L 2.53125 -3.90625 C 2.53125 -3.09375 2.828125 -2.445312 3.421875 -1.96875 C 4.023438 -1.5 4.832031 -1.265625 5.84375 -1.265625 C 6.78125 -1.265625 7.5 -1.457031 8 -1.84375 C 8.5 -2.226562 8.75 -2.75 8.75 -3.40625 C 8.75 -4.0625 8.515625 -4.570312 8.046875 -4.9375 C 7.585938 -5.300781 6.75 -5.65625 5.53125 -6 Z M 5.53125 -6 "/></g></g></g><g fill="#49454e" fill-opacity="1"><g transform="translate(55.937227, 18.261537)"><g><path d="M 5.453125 0.1875 C 4.097656 0.1875 2.992188 -0.253906 2.140625 -1.140625 C 1.285156 -2.035156 0.859375 -3.234375 0.859375 -4.734375 L 0.859375 -5.046875 C 0.859375 -6.035156 1.046875 -6.921875 1.421875 -7.703125 C 1.804688 -8.484375 2.335938 -9.09375 3.015625 -9.53125 C 3.703125 -9.976562 4.441406 -10.203125 5.234375 -10.203125 C 6.535156 -10.203125 7.546875 -9.769531 8.265625 -8.90625 C 8.992188 -8.050781 9.359375 -6.828125 9.359375 -5.234375 L 9.359375 -4.515625 L 2.578125 -4.515625 C 2.597656 -3.523438 2.882812 -2.726562 3.4375 -2.125 C 3.988281 -1.519531 4.691406 -1.21875 5.546875 -1.21875 C 6.148438 -1.21875 6.660156 -1.335938 7.078125 -1.578125 C 7.492188 -1.828125 7.863281 -2.15625 8.1875 -2.5625 L 9.234375 -1.75 C 8.390625 -0.457031 7.128906 0.1875 5.453125 0.1875 Z M 5.234375 -8.796875 C 4.546875 -8.796875 3.96875 -8.539062 3.5 -8.03125 C 3.03125 -7.53125 2.738281 -6.828125 2.625 -5.921875 L 7.640625 -5.921875 L 7.640625 -6.046875 C 7.585938 -6.921875 7.351562 -7.597656 6.9375 -8.078125 C 6.519531 -8.554688 5.953125 -8.796875 5.234375 -8.796875 Z M 5.234375 -8.796875 "/></g></g></g><g fill="#49454e" fill-opacity="1"><g transform="translate(65.973368, 18.261537)"><g><path d="M 5.3125 -1.21875 C 5.925781 -1.21875 6.457031 -1.398438 6.90625 -1.765625 C 7.363281 -2.140625 7.617188 -2.601562 7.671875 -3.15625 L 9.296875 -3.15625 C 9.265625 -2.582031 9.066406 -2.035156 8.703125 -1.515625 C 8.335938 -0.992188 7.847656 -0.578125 7.234375 -0.265625 C 6.628906 0.0351562 5.988281 0.1875 5.3125 0.1875 C 3.945312 0.1875 2.859375 -0.265625 2.046875 -1.171875 C 1.242188 -2.085938 0.84375 -3.335938 0.84375 -4.921875 L 0.84375 -5.203125 C 0.84375 -6.171875 1.019531 -7.035156 1.375 -7.796875 C 1.738281 -8.554688 2.253906 -9.144531 2.921875 -9.5625 C 3.597656 -9.988281 4.390625 -10.203125 5.296875 -10.203125 C 6.421875 -10.203125 7.351562 -9.863281 8.09375 -9.1875 C 8.84375 -8.519531 9.242188 -7.648438 9.296875 -6.578125 L 7.671875 -6.578125 C 7.617188 -7.222656 7.375 -7.753906 6.9375 -8.171875 C 6.5 -8.585938 5.953125 -8.796875 5.296875 -8.796875 C 4.429688 -8.796875 3.757812 -8.476562 3.28125 -7.84375 C 2.800781 -7.21875 2.5625 -6.316406 2.5625 -5.140625 L 2.5625 -4.8125 C 2.5625 -3.65625 2.796875 -2.765625 3.265625 -2.140625 C 3.742188 -1.523438 4.425781 -1.21875 5.3125 -1.21875 Z M 5.3125 -1.21875 "/></g></g></g><g fill="#49454e" fill-opacity="1"><g transform="translate(75.88926, 18.261537)"><g><path d="M 0.84375 -5.09375 C 0.84375 -6.082031 1.035156 -6.96875 1.421875 -7.75 C 1.804688 -8.53125 2.34375 -9.132812 3.03125 -9.5625 C 3.71875 -9.988281 4.503906 -10.203125 5.390625 -10.203125 C 6.753906 -10.203125 7.851562 -9.726562 8.6875 -8.78125 C 9.53125 -7.832031 9.953125 -6.578125 9.953125 -5.015625 L 9.953125 -4.890625 C 9.953125 -3.921875 9.765625 -3.046875 9.390625 -2.265625 C 9.023438 -1.492188 8.492188 -0.890625 7.796875 -0.453125 C 7.097656 -0.0234375 6.300781 0.1875 5.40625 0.1875 C 4.050781 0.1875 2.953125 -0.28125 2.109375 -1.21875 C 1.265625 -2.164062 0.84375 -3.421875 0.84375 -4.984375 Z M 2.5625 -4.890625 C 2.5625 -3.785156 2.816406 -2.894531 3.328125 -2.21875 C 3.847656 -1.550781 4.539062 -1.21875 5.40625 -1.21875 C 6.269531 -1.21875 6.957031 -1.554688 7.46875 -2.234375 C 7.988281 -2.910156 8.25 -3.863281 8.25 -5.09375 C 8.25 -6.195312 7.988281 -7.085938 7.46875 -7.765625 C 6.945312 -8.453125 6.253906 -8.796875 5.390625 -8.796875 C 4.546875 -8.796875 3.863281 -8.457031 3.34375 -7.78125 C 2.820312 -7.113281 2.5625 -6.148438 2.5625 -4.890625 Z M 2.5625 -4.890625 "/></g></g></g><g fill="#49454e" fill-opacity="1"><g transform="translate(86.693142, 18.261537)"><g><path d="M 2.921875 -10.015625 L 2.96875 -8.75 C 3.738281 -9.71875 4.738281 -10.203125 5.96875 -10.203125 C 8.082031 -10.203125 9.148438 -9.003906 9.171875 -6.609375 L 9.171875 0 L 7.453125 0 L 7.453125 -6.625 C 7.453125 -7.34375 7.289062 -7.875 6.96875 -8.21875 C 6.644531 -8.570312 6.140625 -8.75 5.453125 -8.75 C 4.898438 -8.75 4.410156 -8.597656 3.984375 -8.296875 C 3.566406 -8.003906 3.238281 -7.617188 3 -7.140625 L 3 0 L 1.296875 0 L 1.296875 -10.015625 Z M 2.921875 -10.015625 "/></g></g></g><g fill="#49454e" fill-opacity="1"><g transform="translate(97.145529, 18.261537)"><g><path d="M 0.875 -5.09375 C 0.875 -6.625 1.238281 -7.859375 1.96875 -8.796875 C 2.695312 -9.734375 3.648438 -10.203125 4.828125 -10.203125 C 6.003906 -10.203125 6.929688 -9.800781 7.609375 -9 L 7.609375 -14.21875 L 9.328125 -14.21875 L 9.328125 0 L 7.75 0 L 7.671875 -1.078125 C 6.984375 -0.234375 6.03125 0.1875 4.8125 0.1875 C 3.65625 0.1875 2.707031 -0.285156 1.96875 -1.234375 C 1.238281 -2.191406 0.875 -3.429688 0.875 -4.953125 Z M 2.59375 -4.890625 C 2.59375 -3.753906 2.828125 -2.863281 3.296875 -2.21875 C 3.765625 -1.582031 4.410156 -1.265625 5.234375 -1.265625 C 6.316406 -1.265625 7.109375 -1.753906 7.609375 -2.734375 L 7.609375 -7.328125 C 7.097656 -8.273438 6.3125 -8.75 5.25 -8.75 C 4.414062 -8.75 3.765625 -8.421875 3.296875 -7.765625 C 2.828125 -7.117188 2.59375 -6.160156 2.59375 -4.890625 Z M 2.59375 -4.890625 "/></g></g></g><g fill="#49454e" fill-opacity="1"><g transform="translate(107.829162, 18.261537)"><g/></g></g><g fill="#49454e" fill-opacity="1"><g transform="translate(112.518861, 18.261537)"><g><path d="M 1.5625 0 L 1.5625 -13.46875 L 5.96875 -13.46875 C 7.425781 -13.46875 8.523438 -13.164062 9.265625 -12.5625 C 10.003906 -11.957031 10.375 -11.066406 10.375 -9.890625 C 10.375 -9.253906 10.191406 -8.691406 9.828125 -8.203125 C 9.472656 -7.722656 8.988281 -7.351562 8.375 -7.09375 C 9.101562 -6.882812 9.675781 -6.492188 10.09375 -5.921875 C 10.519531 -5.359375 10.734375 -4.679688 10.734375 -3.890625 C 10.734375 -2.679688 10.34375 -1.726562 9.5625 -1.03125 C 8.78125 -0.34375 7.671875 0 6.234375 0 Z M 3.34375 -6.296875 L 3.34375 -1.453125 L 6.28125 -1.453125 C 7.101562 -1.453125 7.753906 -1.664062 8.234375 -2.09375 C 8.710938 -2.519531 8.953125 -3.113281 8.953125 -3.875 C 8.953125 -5.488281 8.066406 -6.296875 6.296875 -6.296875 Z M 3.34375 -7.734375 L 6.03125 -7.734375 C 6.800781 -7.734375 7.421875 -7.925781 7.890625 -8.3125 C 8.359375 -8.695312 8.59375 -9.222656 8.59375 -9.890625 C 8.59375 -10.628906 8.375 -11.164062 7.9375 -11.5 C 7.507812 -11.84375 6.851562 -12.015625 5.96875 -12.015625 L 3.34375 -12.015625 Z M 3.34375 -7.734375 "/></g></g></g><g fill="#49454e" fill-opacity="1"><g transform="translate(124.312483, 18.261537)"><g><path d="M 6.140625 -8.484375 C 5.878906 -8.523438 5.597656 -8.546875 5.296875 -8.546875 C 4.171875 -8.546875 3.40625 -8.066406 3 -7.109375 L 3 0 L 1.296875 0 L 1.296875 -10.015625 L 2.96875 -10.015625 L 2.984375 -8.859375 C 3.546875 -9.753906 4.34375 -10.203125 5.375 -10.203125 C 5.707031 -10.203125 5.960938 -10.15625 6.140625 -10.0625 Z M 6.140625 -8.484375 "/></g></g></g><g fill="#49454e" fill-opacity="1"><g transform="translate(130.722664, 18.261537)"><g><path d="M 7.484375 0 C 7.378906 -0.195312 7.296875 -0.550781 7.234375 -1.0625 C 6.441406 -0.226562 5.492188 0.1875 4.390625 0.1875 C 3.398438 0.1875 2.585938 -0.0859375 1.953125 -0.640625 C 1.328125 -1.203125 1.015625 -1.914062 1.015625 -2.78125 C 1.015625 -3.820312 1.410156 -4.628906 2.203125 -5.203125 C 2.992188 -5.785156 4.109375 -6.078125 5.546875 -6.078125 L 7.203125 -6.078125 L 7.203125 -6.859375 C 7.203125 -7.453125 7.023438 -7.925781 6.671875 -8.28125 C 6.316406 -8.632812 5.789062 -8.8125 5.09375 -8.8125 C 4.476562 -8.8125 3.960938 -8.65625 3.546875 -8.34375 C 3.140625 -8.039062 2.9375 -7.671875 2.9375 -7.234375 L 1.21875 -7.234375 C 1.21875 -7.734375 1.394531 -8.21875 1.75 -8.6875 C 2.101562 -9.15625 2.582031 -9.523438 3.1875 -9.796875 C 3.789062 -10.066406 4.457031 -10.203125 5.1875 -10.203125 C 6.34375 -10.203125 7.25 -9.910156 7.90625 -9.328125 C 8.5625 -8.753906 8.898438 -7.960938 8.921875 -6.953125 L 8.921875 -2.34375 C 8.921875 -1.425781 9.035156 -0.691406 9.265625 -0.140625 L 9.265625 0 Z M 4.640625 -1.3125 C 5.171875 -1.3125 5.675781 -1.445312 6.15625 -1.71875 C 6.644531 -2 6.992188 -2.359375 7.203125 -2.796875 L 7.203125 -4.859375 L 5.875 -4.859375 C 3.769531 -4.859375 2.71875 -4.242188 2.71875 -3.015625 C 2.71875 -2.484375 2.894531 -2.066406 3.25 -1.765625 C 3.613281 -1.460938 4.078125 -1.3125 4.640625 -1.3125 Z M 4.640625 -1.3125 "/></g></g></g><g fill="#49454e" fill-opacity="1"><g transform="translate(141.027052, 18.261537)"><g><path d="M 3.15625 0 L 1.4375 0 L 1.4375 -10.015625 L 3.15625 -10.015625 Z M 1.3125 -12.671875 C 1.3125 -12.941406 1.394531 -13.171875 1.5625 -13.359375 C 1.726562 -13.554688 1.976562 -13.65625 2.3125 -13.65625 C 2.644531 -13.65625 2.894531 -13.554688 3.0625 -13.359375 C 3.238281 -13.171875 3.328125 -12.9375 3.328125 -12.65625 C 3.328125 -12.382812 3.238281 -12.15625 3.0625 -11.96875 C 2.894531 -11.789062 2.644531 -11.703125 2.3125 -11.703125 C 1.976562 -11.703125 1.726562 -11.789062 1.5625 -11.96875 C 1.394531 -12.15625 1.3125 -12.390625 1.3125 -12.671875 Z M 1.3125 -12.671875 "/></g></g></g><g fill="#49454e" fill-opacity="1"><g transform="translate(145.624252, 18.261537)"><g><path d="M 2.921875 -10.015625 L 2.96875 -8.75 C 3.738281 -9.71875 4.738281 -10.203125 5.96875 -10.203125 C 8.082031 -10.203125 9.148438 -9.003906 9.171875 -6.609375 L 9.171875 0 L 7.453125 0 L 7.453125 -6.625 C 7.453125 -7.34375 7.289062 -7.875 6.96875 -8.21875 C 6.644531 -8.570312 6.140625 -8.75 5.453125 -8.75 C 4.898438 -8.75 4.410156 -8.597656 3.984375 -8.296875 C 3.566406 -8.003906 3.238281 -7.617188 3 -7.140625 L 3 0 L 1.296875 0 L 1.296875 -10.015625 Z M 2.921875 -10.015625 "/></g></g></g></g></g></g></g></g></g></svg>