<svg xmlns="http://www.w3.org/2000/svg" xmlns:xlink="http://www.w3.org/1999/xlink" width="1024" zoomAndPan="magnify" viewBox="0 0 768 767.999994" height="1024" preserveAspectRatio="xMidYMid meet" version="1.0"><path fill="#6750a4" d="M 314.78125 332.03125 L 349.382812 355.664062 C 351.164062 352.421875 354.609375 350.222656 358.558594 350.222656 L 411.320312 350.222656 C 417.066406 350.222656 421.769531 354.925781 421.769531 360.671875 L 421.769531 413.449219 C 421.769531 419.195312 417.066406 423.882812 411.320312 423.882812 L 385.75 423.882812 L 363.539062 467.6875 L 367.980469 467.6875 C 375.375 467.6875 381.410156 473.722656 381.410156 481.117188 L 381.410156 510.449219 L 455.9375 511.667969 L 455.9375 509.84375 C 455.9375 505.472656 459.511719 501.882812 463.898438 501.882812 L 504.097656 501.882812 C 508.484375 501.882812 512.058594 505.457031 512.058594 509.84375 L 512.058594 550.058594 C 512.058594 554.429688 508.484375 558.019531 504.097656 558.019531 L 463.898438 558.019531 C 459.511719 558.019531 455.9375 554.445312 455.9375 550.058594 L 455.9375 531.492188 L 381.410156 530.277344 L 381.410156 548.988281 C 381.410156 556.382812 375.375 562.417969 367.980469 562.417969 L 300.125 562.417969 C 292.730469 562.417969 286.695312 556.382812 286.695312 548.988281 L 286.695312 481.132812 C 286.695312 473.738281 292.730469 467.703125 300.125 467.703125 L 341.292969 467.703125 L 363.507812 423.898438 L 358.558594 423.898438 C 352.800781 423.898438 348.109375 419.207031 348.109375 413.464844 L 348.109375 378.832031 L 312.773438 354.695312 C 309.933594 359.875 304.4375 363.40625 298.140625 363.40625 L 213.976562 363.40625 C 204.800781 363.40625 197.316406 355.910156 197.316406 346.734375 L 197.316406 262.570312 C 197.316406 253.394531 204.816406 245.914062 213.976562 245.914062 L 298.140625 245.914062 C 307.316406 245.914062 314.796875 253.410156 314.796875 262.570312 L 314.796875 332.03125 Z M 130.214844 228.34375 L 84.179688 286.375 L 84.179688 343.550781 C 84.179688 346.34375 83.210938 348.90625 81.589844 350.945312 L 114.730469 390.554688 L 172.730469 390.554688 C 181.90625 390.554688 189.386719 398.050781 189.386719 407.226562 L 189.386719 491.390625 C 189.386719 500.566406 181.890625 508.0625 172.730469 508.0625 L 88.566406 508.0625 C 79.390625 508.0625 71.910156 500.566406 71.910156 491.390625 L 71.910156 407.226562 C 71.910156 398.050781 79.40625 390.554688 88.566406 390.554688 L 88.839844 390.554688 L 59.492188 355.492188 L 11.925781 355.492188 C 5.367188 355.492188 0 350.121094 0 343.566406 L 0 283.25 C 0 276.691406 5.367188 271.324219 11.925781 271.324219 L 70.78125 271.324219 L 105.308594 227.792969 C 98.203125 225.898438 92.9375 219.386719 92.9375 211.703125 L 92.9375 127.523438 C 92.9375 118.347656 100.433594 110.851562 109.59375 110.851562 L 193.757812 110.851562 C 202.933594 110.851562 210.414062 118.347656 210.414062 127.523438 L 210.414062 211.6875 C 210.414062 220.863281 202.917969 228.34375 193.757812 228.34375 Z M 543.792969 643.097656 L 595.414062 586.035156 L 595.398438 585.355469 L 595.398438 488.628906 C 595.398438 483.460938 597.46875 478.773438 600.8125 475.328125 L 573.632812 443.808594 C 572.722656 443.96875 571.765625 444.042969 570.8125 444.042969 L 486.632812 444.042969 C 477.457031 444.042969 469.976562 436.546875 469.976562 427.371094 L 469.976562 343.203125 C 469.976562 334.027344 477.472656 326.546875 486.632812 326.546875 L 570.8125 326.546875 C 579.988281 326.546875 587.46875 334.042969 587.46875 343.203125 L 587.46875 427.371094 C 587.46875 428.050781 587.425781 428.714844 587.351562 429.382812 L 621.925781 469.496094 L 711.226562 469.496094 C 721.761719 469.496094 730.359375 478.105469 730.359375 488.628906 L 730.359375 585.339844 C 730.359375 595.859375 721.75 604.472656 711.226562 604.472656 L 614.515625 604.472656 C 611.808594 604.472656 609.203125 603.894531 606.859375 602.867188 L 559.394531 655.339844 L 559.394531 712.328125 C 559.394531 718.621094 554.242188 723.761719 547.960938 723.761719 L 490.164062 723.761719 C 483.867188 723.761719 478.730469 718.621094 478.730469 712.328125 L 478.730469 654.527344 C 478.730469 648.234375 483.882812 643.097656 490.164062 643.097656 Z M 703.386719 315.160156 L 671.980469 254.609375 L 630.332031 254.609375 C 623.632812 254.609375 618.164062 249.140625 618.164062 242.4375 L 618.164062 180.90625 C 618.164062 174.207031 623.632812 168.734375 630.332031 168.734375 L 691.867188 168.734375 C 698.566406 168.734375 704.035156 174.207031 704.035156 180.90625 L 704.035156 242.4375 C 704.035156 248.34375 699.796875 253.292969 694.195312 254.394531 L 725.714844 315.160156 L 755.886719 315.160156 C 762.585938 315.160156 768.058594 320.628906 768.058594 327.328125 L 768.058594 388.863281 C 768.058594 395.5625 762.585938 401.03125 755.886719 401.03125 L 694.355469 401.03125 C 687.65625 401.03125 682.183594 395.5625 682.183594 388.863281 L 682.183594 327.328125 C 682.183594 320.628906 687.65625 315.160156 694.355469 315.160156 Z M 313.03125 44.210938 L 397.199219 44.210938 C 406.371094 44.210938 413.855469 51.707031 413.855469 60.867188 L 413.855469 145.046875 C 413.855469 154.222656 406.359375 161.703125 397.199219 161.703125 L 381.496094 161.703125 L 398.992188 204.699219 L 442.871094 204.699219 C 443.664062 204.699219 444.417969 204.769531 445.15625 204.914062 L 471.652344 182.542969 C 468.457031 179.503906 466.457031 175.21875 466.457031 170.472656 L 466.457031 86.308594 C 466.457031 77.132812 473.953125 69.636719 483.113281 69.636719 L 567.296875 69.636719 C 576.46875 69.636719 583.953125 77.132812 583.953125 86.308594 L 583.953125 170.472656 C 583.953125 179.648438 576.457031 187.128906 567.296875 187.128906 L 496.964844 187.128906 L 455.027344 222.542969 L 455.027344 278.402344 C 455.027344 285.101562 449.554688 290.570312 442.855469 290.570312 L 381.324219 290.570312 C 374.621094 290.570312 369.152344 285.101562 369.152344 278.402344 L 369.152344 216.867188 C 369.152344 211.398438 372.785156 206.753906 377.761719 205.21875 L 360.035156 161.703125 L 313.015625 161.703125 C 303.84375 161.703125 296.347656 154.207031 296.347656 145.046875 L 296.347656 60.867188 C 296.375 51.707031 303.871094 44.210938 313.03125 44.210938 Z M 313.03125 44.210938 " fill-opacity="1" fill-rule="evenodd"/></svg>