<svg xmlns="http://www.w3.org/2000/svg" xmlns:xlink="http://www.w3.org/1999/xlink" width="529" zoomAndPan="magnify" viewBox="0 0 396.75 100.499997" height="134" preserveAspectRatio="xMidYMid meet" version="1.0"><defs><filter x="0%" y="0%" width="100%" height="100%" id="f8f321ab40"><feColorMatrix values="0 0 0 0 1 0 0 0 0 1 0 0 0 0 1 0 0 0 1 0" color-interpolation-filters="sRGB"/></filter><g/><clipPath id="c46527c98e"><path d="M 0.859375 10 L 382 10 L 382 98 L 0.859375 98 Z M 0.859375 10 " clip-rule="nonzero"/></clipPath><clipPath id="692818f939"><path d="M 0.859375 0.1875 L 98.574219 0.1875 L 98.574219 86.707031 L 0.859375 86.707031 Z M 0.859375 0.1875 " clip-rule="nonzero"/></clipPath><clipPath id="3611e13792"><path d="M 116 2 L 381.761719 2 L 381.761719 54 L 116 54 Z M 116 2 " clip-rule="nonzero"/></clipPath><clipPath id="d9a035ec64"><rect x="0" width="266" y="0" height="52"/></clipPath><mask id="bec27a2f5b"><g filter="url(#f8f321ab40)"><rect x="-87.285" width="571.32" fill="#000000" y="-32.109999" height="144.719996" fill-opacity="0.8"/></g></mask><clipPath id="510dbc773e"><path d="M 0.113281 0.40625 L 156.296875 0.40625 L 156.296875 23.09375 L 0.113281 23.09375 Z M 0.113281 0.40625 " clip-rule="nonzero"/></clipPath><clipPath id="76344557b0"><path d="M 0.113281 4 L 13 4 L 13 18 L 0.113281 18 Z M 0.113281 4 " clip-rule="nonzero"/></clipPath><clipPath id="206da7dd74"><rect x="0" width="157" y="0" height="24"/></clipPath><clipPath id="55df4543dd"><rect x="0" width="157" y="0" height="24"/></clipPath><clipPath id="e09c9118ce"><rect x="0" width="382" y="0" height="88"/></clipPath></defs><g clip-path="url(#c46527c98e)"><g transform="matrix(1, 0, 0, 1, -0.000000000000000111, 10)"><g clip-path="url(#e09c9118ce)"><g clip-path="url(#692818f939)"><path fill="#6750a4" d="M 41.058594 36.96875 L 45.476562 39.988281 C 45.703125 39.574219 46.144531 39.292969 46.648438 39.292969 L 53.386719 39.292969 C 54.121094 39.292969 54.722656 39.890625 54.722656 40.625 L 54.722656 47.367188 C 54.722656 48.101562 54.121094 48.699219 53.386719 48.699219 L 50.121094 48.699219 L 47.285156 54.292969 L 47.851562 54.292969 C 48.796875 54.292969 49.566406 55.0625 49.566406 56.007812 L 49.566406 59.753906 L 59.085938 59.910156 L 59.085938 59.675781 C 59.085938 59.117188 59.542969 58.660156 60.101562 58.660156 L 65.234375 58.660156 C 65.796875 58.660156 66.253906 59.117188 66.253906 59.675781 L 66.253906 64.8125 C 66.253906 65.371094 65.796875 65.828125 65.234375 65.828125 L 60.101562 65.828125 C 59.542969 65.828125 59.085938 65.371094 59.085938 64.8125 L 59.085938 62.441406 L 49.566406 62.285156 L 49.566406 64.675781 C 49.566406 65.621094 48.796875 66.390625 47.851562 66.390625 L 39.1875 66.390625 C 38.242188 66.390625 37.472656 65.621094 37.472656 64.675781 L 37.472656 56.011719 C 37.472656 55.066406 38.242188 54.292969 39.1875 54.292969 L 44.445312 54.292969 L 47.28125 48.699219 L 46.648438 48.699219 C 45.914062 48.699219 45.316406 48.101562 45.316406 47.367188 L 45.316406 42.945312 L 40.800781 39.863281 C 40.441406 40.523438 39.738281 40.976562 38.933594 40.976562 L 28.183594 40.976562 C 27.011719 40.976562 26.058594 40.019531 26.058594 38.847656 L 26.058594 28.097656 C 26.058594 26.925781 27.015625 25.96875 28.183594 25.96875 L 38.933594 25.96875 C 40.105469 25.96875 41.058594 26.925781 41.058594 28.097656 Z M 17.488281 23.726562 L 11.609375 31.136719 L 11.609375 38.441406 C 11.609375 38.796875 11.484375 39.125 11.277344 39.382812 L 15.511719 44.441406 L 22.917969 44.441406 C 24.089844 44.441406 25.042969 45.398438 25.042969 46.570312 L 25.042969 57.320312 C 25.042969 58.492188 24.085938 59.449219 22.917969 59.449219 L 12.167969 59.449219 C 10.996094 59.449219 10.042969 58.492188 10.042969 57.320312 L 10.042969 46.570312 C 10.042969 45.398438 11 44.441406 12.167969 44.441406 L 12.203125 44.441406 L 8.457031 39.964844 L 2.378906 39.964844 C 1.542969 39.964844 0.859375 39.277344 0.859375 38.441406 L 0.859375 30.738281 C 0.859375 29.902344 1.542969 29.214844 2.378906 29.214844 L 9.898438 29.214844 L 14.308594 23.65625 C 13.398438 23.414062 12.726562 22.582031 12.726562 21.601562 L 12.726562 10.851562 C 12.726562 9.679688 13.683594 8.722656 14.855469 8.722656 L 25.601562 8.722656 C 26.773438 8.722656 27.730469 9.679688 27.730469 10.851562 L 27.730469 21.597656 C 27.730469 22.769531 26.773438 23.726562 25.601562 23.726562 Z M 70.304688 76.695312 L 76.898438 69.40625 L 76.894531 69.320312 L 76.894531 56.96875 C 76.894531 56.308594 77.160156 55.707031 77.585938 55.269531 L 74.117188 51.242188 C 74 51.265625 73.878906 51.273438 73.757812 51.273438 L 63.003906 51.273438 C 61.832031 51.273438 60.878906 50.316406 60.878906 49.144531 L 60.878906 38.394531 C 60.878906 37.222656 61.835938 36.269531 63.003906 36.269531 L 73.757812 36.269531 C 74.929688 36.269531 75.882812 37.226562 75.882812 38.394531 L 75.882812 49.144531 C 75.882812 49.230469 75.878906 49.316406 75.867188 49.402344 L 80.285156 54.523438 L 91.6875 54.523438 C 93.035156 54.523438 94.132812 55.625 94.132812 56.96875 L 94.132812 69.320312 C 94.132812 70.660156 93.03125 71.761719 91.6875 71.761719 L 79.335938 71.761719 C 78.992188 71.761719 78.660156 71.6875 78.359375 71.554688 L 72.296875 78.257812 L 72.296875 85.535156 C 72.296875 86.339844 71.640625 86.996094 70.835938 86.996094 L 63.457031 86.996094 C 62.652344 86.996094 61.996094 86.339844 61.996094 85.535156 L 61.996094 78.15625 C 61.996094 77.351562 62.652344 76.695312 63.457031 76.695312 Z M 90.6875 34.8125 L 86.675781 27.082031 L 81.359375 27.082031 C 80.5 27.082031 79.804688 26.382812 79.804688 25.527344 L 79.804688 17.667969 C 79.804688 16.8125 80.5 16.113281 81.359375 16.113281 L 89.214844 16.113281 C 90.070312 16.113281 90.769531 16.8125 90.769531 17.667969 L 90.769531 25.527344 C 90.769531 26.28125 90.230469 26.914062 89.511719 27.054688 L 93.539062 34.8125 L 97.390625 34.8125 C 98.246094 34.8125 98.945312 35.511719 98.945312 36.367188 L 98.945312 44.226562 C 98.945312 45.082031 98.246094 45.78125 97.390625 45.78125 L 89.535156 45.78125 C 88.679688 45.78125 87.980469 45.082031 87.980469 44.226562 L 87.980469 36.367188 C 87.980469 35.511719 88.679688 34.8125 89.535156 34.8125 Z M 40.835938 0.210938 L 51.582031 0.210938 C 52.753906 0.210938 53.710938 1.167969 53.710938 2.335938 L 53.710938 13.089844 C 53.710938 14.261719 52.753906 15.214844 51.582031 15.214844 L 49.578125 15.214844 L 51.8125 20.707031 L 57.417969 20.707031 C 57.519531 20.707031 57.613281 20.714844 57.707031 20.734375 L 61.09375 17.878906 C 60.683594 17.488281 60.429688 16.941406 60.429688 16.335938 L 60.429688 5.585938 C 60.429688 4.414062 61.386719 3.457031 62.554688 3.457031 L 73.308594 3.457031 C 74.480469 3.457031 75.433594 4.414062 75.433594 5.585938 L 75.433594 16.335938 C 75.433594 17.507812 74.476562 18.460938 73.308594 18.460938 L 64.324219 18.460938 L 58.96875 22.984375 L 58.96875 30.121094 C 58.96875 30.976562 58.269531 31.671875 57.414062 31.671875 L 49.554688 31.671875 C 48.699219 31.671875 48.003906 30.976562 48.003906 30.121094 L 48.003906 22.261719 C 48.003906 21.5625 48.464844 20.96875 49.101562 20.773438 L 46.835938 15.214844 L 40.832031 15.214844 C 39.660156 15.214844 38.703125 14.257812 38.703125 13.089844 L 38.703125 2.335938 C 38.707031 1.167969 39.664062 0.210938 40.835938 0.210938 Z M 40.835938 0.210938 " fill-opacity="1" fill-rule="evenodd"/></g><g clip-path="url(#3611e13792)"><g transform="matrix(1, 0, 0, 1, 116, 2)"><g clip-path="url(#d9a035ec64)"><g fill="#ffffff" fill-opacity="1"><g transform="translate(0.935871, 40.212668)"><g><path d="M 2.75 0 L 2.75 -30.859375 L 13.5625 -30.859375 C 17.3125 -30.859375 20.148438 -30.140625 22.078125 -28.703125 C 24.015625 -27.273438 24.984375 -25.175781 24.984375 -22.40625 C 24.984375 -20.894531 24.59375 -19.5625 23.8125 -18.40625 C 23.039062 -17.257812 21.960938 -16.414062 20.578125 -15.875 C 22.160156 -15.476562 23.40625 -14.675781 24.3125 -13.46875 C 25.226562 -12.269531 25.6875 -10.804688 25.6875 -9.078125 C 25.6875 -6.109375 24.738281 -3.859375 22.84375 -2.328125 C 20.945312 -0.804688 18.25 -0.03125 14.75 0 Z M 9.109375 -13.4375 L 9.109375 -5.109375 L 14.5625 -5.109375 C 16.0625 -5.109375 17.226562 -5.460938 18.0625 -6.171875 C 18.90625 -6.890625 19.328125 -7.878906 19.328125 -9.140625 C 19.328125 -11.960938 17.863281 -13.394531 14.9375 -13.4375 Z M 9.109375 -17.9375 L 13.8125 -17.9375 C 17.019531 -17.988281 18.625 -19.265625 18.625 -21.765625 C 18.625 -23.160156 18.21875 -24.164062 17.40625 -24.78125 C 16.59375 -25.394531 15.3125 -25.703125 13.5625 -25.703125 L 9.109375 -25.703125 Z M 9.109375 -17.9375 "/></g></g></g><g fill="#ffffff" fill-opacity="1"><g transform="translate(28.633841, 40.212668)"><g><path d="M 14.171875 -11.296875 L 9.109375 -11.296875 L 9.109375 0 L 2.75 0 L 2.75 -30.859375 L 14.21875 -30.859375 C 17.863281 -30.859375 20.675781 -30.046875 22.65625 -28.421875 C 24.632812 -26.796875 25.625 -24.5 25.625 -21.53125 C 25.625 -19.425781 25.164062 -17.671875 24.25 -16.265625 C 23.34375 -14.859375 21.960938 -13.738281 20.109375 -12.90625 L 26.796875 -0.296875 L 26.796875 0 L 19.96875 0 Z M 9.109375 -16.453125 L 14.25 -16.453125 C 15.84375 -16.453125 17.078125 -16.859375 17.953125 -17.671875 C 18.828125 -18.484375 19.265625 -19.601562 19.265625 -21.03125 C 19.265625 -22.476562 18.847656 -23.617188 18.015625 -24.453125 C 17.191406 -25.285156 15.925781 -25.703125 14.21875 -25.703125 L 9.109375 -25.703125 Z M 9.109375 -16.453125 "/></g></g></g><g fill="#ffffff" fill-opacity="1"><g transform="translate(56.331812, 40.212668)"><g><path d="M 20.171875 -6.359375 L 9.03125 -6.359375 L 6.90625 0 L 0.140625 0 L 11.640625 -30.859375 L 17.53125 -30.859375 L 29.078125 0 L 22.3125 0 Z M 10.75 -11.515625 L 18.453125 -11.515625 L 14.578125 -23.0625 Z M 10.75 -11.515625 "/></g></g></g><g fill="#ffffff" fill-opacity="1"><g transform="translate(85.534417, 40.212668)"><g><path d="M 9.515625 0 L 3.15625 0 L 3.15625 -30.859375 L 9.515625 -30.859375 Z M 9.515625 0 "/></g></g></g><g fill="#ffffff" fill-opacity="1"><g transform="translate(98.186053, 40.212668)"><g><path d="M 27.84375 0 L 21.484375 0 L 9.109375 -20.296875 L 9.109375 0 L 2.75 0 L 2.75 -30.859375 L 9.109375 -30.859375 L 21.515625 -10.515625 L 21.515625 -30.859375 L 27.84375 -30.859375 Z M 27.84375 0 "/></g></g></g><g fill="#ffffff" fill-opacity="1"><g transform="translate(128.829714, 40.212668)"><g><path d="M 14.15625 -7.65625 L 21.15625 -30.859375 L 28.234375 -30.859375 L 17.484375 0 L 10.859375 0 L 0.140625 -30.859375 L 7.203125 -30.859375 Z M 14.15625 -7.65625 "/></g></g></g><g fill="#ffffff" fill-opacity="1"><g transform="translate(157.20583, 40.212668)"><g><path d="M 20.171875 -6.359375 L 9.03125 -6.359375 L 6.90625 0 L 0.140625 0 L 11.640625 -30.859375 L 17.53125 -30.859375 L 29.078125 0 L 22.3125 0 Z M 10.75 -11.515625 L 18.453125 -11.515625 L 14.578125 -23.0625 Z M 10.75 -11.515625 "/></g></g></g><g fill="#ffffff" fill-opacity="1"><g transform="translate(186.408434, 40.212668)"><g><path d="M 26.109375 -30.859375 L 26.109375 -10.53125 C 26.109375 -7.15625 25.050781 -4.484375 22.9375 -2.515625 C 20.832031 -0.554688 17.945312 0.421875 14.28125 0.421875 C 10.675781 0.421875 7.8125 -0.53125 5.6875 -2.4375 C 3.570312 -4.34375 2.492188 -6.960938 2.453125 -10.296875 L 2.453125 -30.859375 L 8.8125 -30.859375 L 8.8125 -10.484375 C 8.8125 -8.460938 9.296875 -6.988281 10.265625 -6.0625 C 11.234375 -5.144531 12.570312 -4.6875 14.28125 -4.6875 C 17.851562 -4.6875 19.671875 -6.566406 19.734375 -10.328125 L 19.734375 -30.859375 Z M 26.109375 -30.859375 "/></g></g></g><g fill="#ffffff" fill-opacity="1"><g transform="translate(214.975277, 40.212668)"><g><path d="M 9.109375 -5.109375 L 22.609375 -5.109375 L 22.609375 0 L 2.75 0 L 2.75 -30.859375 L 9.109375 -30.859375 Z M 9.109375 -5.109375 "/></g></g></g><g fill="#ffffff" fill-opacity="1"><g transform="translate(238.477216, 40.212668)"><g><path d="M 25.984375 -25.703125 L 16.53125 -25.703125 L 16.53125 0 L 10.171875 0 L 10.171875 -25.703125 L 0.84375 -25.703125 L 0.84375 -30.859375 L 25.984375 -30.859375 Z M 25.984375 -25.703125 "/></g></g></g></g></g></g><g mask="url(#bec27a2f5b)"><g transform="matrix(1, 0, 0, 1, 118, 61)"><g clip-path="url(#55df4543dd)"><g clip-path="url(#510dbc773e)"><g><g clip-path="url(#206da7dd74)"><g clip-path="url(#76344557b0)"><g fill="#49454e" fill-opacity="1"><g transform="translate(0.801588, 17.795211)"><g><path d="M 5.6875 -6.71875 L 9.21875 -13.515625 L 11.234375 -13.515625 L 6.578125 -5.03125 L 6.578125 0 L 4.796875 0 L 4.796875 -5.03125 L 0.140625 -13.515625 L 2.1875 -13.515625 Z M 5.6875 -6.71875 "/></g></g></g></g><g fill="#49454e" fill-opacity="1"><g transform="translate(12.202918, 17.795211)"><g><path d="M 0.84375 -5.109375 C 0.84375 -6.097656 1.035156 -6.984375 1.421875 -7.765625 C 1.804688 -8.546875 2.34375 -9.148438 3.03125 -9.578125 C 3.726562 -10.003906 4.519531 -10.21875 5.40625 -10.21875 C 6.769531 -10.21875 7.875 -9.742188 8.71875 -8.796875 C 9.5625 -7.859375 9.984375 -6.601562 9.984375 -5.03125 L 9.984375 -4.90625 C 9.984375 -3.925781 9.796875 -3.046875 9.421875 -2.265625 C 9.046875 -1.492188 8.507812 -0.890625 7.8125 -0.453125 C 7.113281 -0.0234375 6.316406 0.1875 5.421875 0.1875 C 4.054688 0.1875 2.953125 -0.285156 2.109375 -1.234375 C 1.265625 -2.179688 0.84375 -3.429688 0.84375 -4.984375 Z M 2.5625 -4.90625 C 2.5625 -3.789062 2.820312 -2.894531 3.34375 -2.21875 C 3.863281 -1.550781 4.554688 -1.21875 5.421875 -1.21875 C 6.285156 -1.21875 6.972656 -1.554688 7.484375 -2.234375 C 8.003906 -2.921875 8.265625 -3.878906 8.265625 -5.109375 C 8.265625 -6.210938 8.003906 -7.101562 7.484375 -7.78125 C 6.960938 -8.46875 6.269531 -8.8125 5.40625 -8.8125 C 4.550781 -8.8125 3.863281 -8.472656 3.34375 -7.796875 C 2.820312 -7.128906 2.5625 -6.164062 2.5625 -4.90625 Z M 2.5625 -4.90625 "/></g></g></g><g fill="#49454e" fill-opacity="1"><g transform="translate(23.029546, 17.795211)"><g><path d="M 7.5 -1 C 6.832031 -0.207031 5.851562 0.1875 4.5625 0.1875 C 3.488281 0.1875 2.671875 -0.117188 2.109375 -0.734375 C 1.546875 -1.359375 1.265625 -2.28125 1.265625 -3.5 L 1.265625 -10.03125 L 2.984375 -10.03125 L 2.984375 -3.546875 C 2.984375 -2.023438 3.597656 -1.265625 4.828125 -1.265625 C 6.140625 -1.265625 7.015625 -1.753906 7.453125 -2.734375 L 7.453125 -10.03125 L 9.171875 -10.03125 L 9.171875 0 L 7.53125 0 Z M 7.5 -1 "/></g></g></g><g fill="#49454e" fill-opacity="1"><g transform="translate(33.494669, 17.795211)"><g><path d="M 6.15625 -8.5 C 5.894531 -8.539062 5.613281 -8.5625 5.3125 -8.5625 C 4.1875 -8.5625 3.421875 -8.082031 3.015625 -7.125 L 3.015625 0 L 1.296875 0 L 1.296875 -10.03125 L 2.96875 -10.03125 L 3 -8.875 C 3.5625 -9.769531 4.359375 -10.21875 5.390625 -10.21875 C 5.722656 -10.21875 5.976562 -10.175781 6.15625 -10.09375 Z M 6.15625 -8.5 "/></g></g></g><g fill="#49454e" fill-opacity="1"><g transform="translate(39.918345, 17.795211)"><g/></g></g><g fill="#49454e" fill-opacity="1"><g transform="translate(44.617918, 17.795211)"><g><path d="M 5.546875 -6.015625 C 4.015625 -6.460938 2.898438 -7.003906 2.203125 -7.640625 C 1.515625 -8.273438 1.171875 -9.066406 1.171875 -10.015625 C 1.171875 -11.078125 1.59375 -11.953125 2.4375 -12.640625 C 3.289062 -13.335938 4.398438 -13.6875 5.765625 -13.6875 C 6.691406 -13.6875 7.515625 -13.507812 8.234375 -13.15625 C 8.960938 -12.800781 9.523438 -12.304688 9.921875 -11.671875 C 10.328125 -11.035156 10.53125 -10.347656 10.53125 -9.609375 L 8.734375 -9.609375 C 8.734375 -10.421875 8.472656 -11.0625 7.953125 -11.53125 C 7.441406 -12 6.710938 -12.234375 5.765625 -12.234375 C 4.878906 -12.234375 4.191406 -12.035156 3.703125 -11.640625 C 3.210938 -11.253906 2.96875 -10.71875 2.96875 -10.03125 C 2.96875 -9.488281 3.203125 -9.023438 3.671875 -8.640625 C 4.140625 -8.265625 4.929688 -7.914062 6.046875 -7.59375 C 7.171875 -7.28125 8.050781 -6.929688 8.6875 -6.546875 C 9.320312 -6.171875 9.789062 -5.726562 10.09375 -5.21875 C 10.40625 -4.71875 10.5625 -4.125 10.5625 -3.4375 C 10.5625 -2.34375 10.132812 -1.460938 9.28125 -0.796875 C 8.425781 -0.140625 7.285156 0.1875 5.859375 0.1875 C 4.929688 0.1875 4.0625 0.0078125 3.25 -0.34375 C 2.445312 -0.695312 1.828125 -1.179688 1.390625 -1.796875 C 0.960938 -2.421875 0.75 -3.128906 0.75 -3.921875 L 2.53125 -3.921875 C 2.53125 -3.097656 2.832031 -2.445312 3.4375 -1.96875 C 4.039062 -1.5 4.847656 -1.265625 5.859375 -1.265625 C 6.796875 -1.265625 7.515625 -1.457031 8.015625 -1.84375 C 8.515625 -2.226562 8.765625 -2.75 8.765625 -3.40625 C 8.765625 -4.070312 8.53125 -4.585938 8.0625 -4.953125 C 7.601562 -5.316406 6.765625 -5.671875 5.546875 -6.015625 Z M 5.546875 -6.015625 "/></g></g></g><g fill="#49454e" fill-opacity="1"><g transform="translate(55.880207, 17.795211)"><g><path d="M 5.46875 0.1875 C 4.101562 0.1875 2.992188 -0.257812 2.140625 -1.15625 C 1.285156 -2.050781 0.859375 -3.242188 0.859375 -4.734375 L 0.859375 -5.0625 C 0.859375 -6.050781 1.046875 -6.9375 1.421875 -7.71875 C 1.804688 -8.5 2.335938 -9.109375 3.015625 -9.546875 C 3.703125 -9.992188 4.445312 -10.21875 5.25 -10.21875 C 6.550781 -10.21875 7.5625 -9.785156 8.28125 -8.921875 C 9.007812 -8.066406 9.375 -6.835938 9.375 -5.234375 L 9.375 -4.53125 L 2.578125 -4.53125 C 2.597656 -3.539062 2.882812 -2.738281 3.4375 -2.125 C 4 -1.519531 4.707031 -1.21875 5.5625 -1.21875 C 6.164062 -1.21875 6.675781 -1.335938 7.09375 -1.578125 C 7.519531 -1.828125 7.890625 -2.15625 8.203125 -2.5625 L 9.25 -1.75 C 8.40625 -0.457031 7.144531 0.1875 5.46875 0.1875 Z M 5.25 -8.8125 C 4.5625 -8.8125 3.976562 -8.554688 3.5 -8.046875 C 3.03125 -7.546875 2.742188 -6.84375 2.640625 -5.9375 L 7.65625 -5.9375 L 7.65625 -6.0625 C 7.613281 -6.9375 7.378906 -7.613281 6.953125 -8.09375 C 6.535156 -8.570312 5.96875 -8.8125 5.25 -8.8125 Z M 5.25 -8.8125 "/></g></g></g><g fill="#49454e" fill-opacity="1"><g transform="translate(65.937478, 17.795211)"><g><path d="M 5.328125 -1.21875 C 5.941406 -1.21875 6.472656 -1.398438 6.921875 -1.765625 C 7.378906 -2.140625 7.632812 -2.601562 7.6875 -3.15625 L 9.3125 -3.15625 C 9.28125 -2.582031 9.082031 -2.035156 8.71875 -1.515625 C 8.351562 -1.003906 7.863281 -0.59375 7.25 -0.28125 C 6.644531 0.03125 6.003906 0.1875 5.328125 0.1875 C 3.960938 0.1875 2.875 -0.265625 2.0625 -1.171875 C 1.257812 -2.085938 0.859375 -3.335938 0.859375 -4.921875 L 0.859375 -5.21875 C 0.859375 -6.195312 1.035156 -7.066406 1.390625 -7.828125 C 1.753906 -8.585938 2.269531 -9.175781 2.9375 -9.59375 C 3.601562 -10.007812 4.394531 -10.21875 5.3125 -10.21875 C 6.4375 -10.21875 7.367188 -9.878906 8.109375 -9.203125 C 8.859375 -8.535156 9.257812 -7.664062 9.3125 -6.59375 L 7.6875 -6.59375 C 7.632812 -7.238281 7.390625 -7.769531 6.953125 -8.1875 C 6.515625 -8.601562 5.96875 -8.8125 5.3125 -8.8125 C 4.445312 -8.8125 3.769531 -8.5 3.28125 -7.875 C 2.800781 -7.25 2.5625 -6.34375 2.5625 -5.15625 L 2.5625 -4.828125 C 2.5625 -3.671875 2.800781 -2.78125 3.28125 -2.15625 C 3.757812 -1.53125 4.441406 -1.21875 5.328125 -1.21875 Z M 5.328125 -1.21875 "/></g></g></g><g fill="#49454e" fill-opacity="1"><g transform="translate(75.874246, 17.795211)"><g><path d="M 0.84375 -5.109375 C 0.84375 -6.097656 1.035156 -6.984375 1.421875 -7.765625 C 1.804688 -8.546875 2.34375 -9.148438 3.03125 -9.578125 C 3.726562 -10.003906 4.519531 -10.21875 5.40625 -10.21875 C 6.769531 -10.21875 7.875 -9.742188 8.71875 -8.796875 C 9.5625 -7.859375 9.984375 -6.601562 9.984375 -5.03125 L 9.984375 -4.90625 C 9.984375 -3.925781 9.796875 -3.046875 9.421875 -2.265625 C 9.046875 -1.492188 8.507812 -0.890625 7.8125 -0.453125 C 7.113281 -0.0234375 6.316406 0.1875 5.421875 0.1875 C 4.054688 0.1875 2.953125 -0.285156 2.109375 -1.234375 C 1.265625 -2.179688 0.84375 -3.429688 0.84375 -4.984375 Z M 2.5625 -4.90625 C 2.5625 -3.789062 2.820312 -2.894531 3.34375 -2.21875 C 3.863281 -1.550781 4.554688 -1.21875 5.421875 -1.21875 C 6.285156 -1.21875 6.972656 -1.554688 7.484375 -2.234375 C 8.003906 -2.921875 8.265625 -3.878906 8.265625 -5.109375 C 8.265625 -6.210938 8.003906 -7.101562 7.484375 -7.78125 C 6.960938 -8.46875 6.269531 -8.8125 5.40625 -8.8125 C 4.550781 -8.8125 3.863281 -8.472656 3.34375 -7.796875 C 2.820312 -7.128906 2.5625 -6.164062 2.5625 -4.90625 Z M 2.5625 -4.90625 "/></g></g></g><g fill="#49454e" fill-opacity="1"><g transform="translate(86.700875, 17.795211)"><g><path d="M 2.921875 -10.03125 L 2.984375 -8.78125 C 3.742188 -9.738281 4.742188 -10.21875 5.984375 -10.21875 C 8.109375 -10.21875 9.175781 -9.023438 9.1875 -6.640625 L 9.1875 0 L 7.484375 0 L 7.484375 -6.640625 C 7.472656 -7.367188 7.304688 -7.90625 6.984375 -8.25 C 6.660156 -8.59375 6.15625 -8.765625 5.46875 -8.765625 C 4.90625 -8.765625 4.414062 -8.613281 4 -8.3125 C 3.582031 -8.019531 3.253906 -7.632812 3.015625 -7.15625 L 3.015625 0 L 1.296875 0 L 1.296875 -10.03125 Z M 2.921875 -10.03125 "/></g></g></g><g fill="#49454e" fill-opacity="1"><g transform="translate(97.175267, 17.795211)"><g><path d="M 0.875 -5.109375 C 0.875 -6.640625 1.238281 -7.875 1.96875 -8.8125 C 2.707031 -9.75 3.664062 -10.21875 4.84375 -10.21875 C 6.019531 -10.21875 6.953125 -9.816406 7.640625 -9.015625 L 7.640625 -14.25 L 9.359375 -14.25 L 9.359375 0 L 7.78125 0 L 7.6875 -1.078125 C 7 -0.234375 6.046875 0.1875 4.828125 0.1875 C 3.660156 0.1875 2.707031 -0.285156 1.96875 -1.234375 C 1.238281 -2.191406 0.875 -3.4375 0.875 -4.96875 Z M 2.59375 -4.90625 C 2.59375 -3.769531 2.828125 -2.878906 3.296875 -2.234375 C 3.773438 -1.585938 4.425781 -1.265625 5.25 -1.265625 C 6.34375 -1.265625 7.140625 -1.753906 7.640625 -2.734375 L 7.640625 -7.34375 C 7.117188 -8.289062 6.328125 -8.765625 5.265625 -8.765625 C 4.429688 -8.765625 3.773438 -8.4375 3.296875 -7.78125 C 2.828125 -7.132812 2.59375 -6.175781 2.59375 -4.90625 Z M 2.59375 -4.90625 "/></g></g></g><g fill="#49454e" fill-opacity="1"><g transform="translate(107.881394, 17.795211)"><g/></g></g><g fill="#49454e" fill-opacity="1"><g transform="translate(112.580966, 17.795211)"><g><path d="M 1.5625 0 L 1.5625 -13.515625 L 5.984375 -13.515625 C 7.453125 -13.515625 8.554688 -13.207031 9.296875 -12.59375 C 10.035156 -11.988281 10.40625 -11.09375 10.40625 -9.90625 C 10.40625 -9.28125 10.222656 -8.722656 9.859375 -8.234375 C 9.503906 -7.742188 9.015625 -7.367188 8.390625 -7.109375 C 9.117188 -6.898438 9.695312 -6.507812 10.125 -5.9375 C 10.550781 -5.363281 10.765625 -4.679688 10.765625 -3.890625 C 10.765625 -2.679688 10.367188 -1.726562 9.578125 -1.03125 C 8.796875 -0.34375 7.6875 0 6.25 0 Z M 3.34375 -6.3125 L 3.34375 -1.453125 L 6.296875 -1.453125 C 7.117188 -1.453125 7.769531 -1.664062 8.25 -2.09375 C 8.726562 -2.53125 8.96875 -3.125 8.96875 -3.875 C 8.96875 -5.5 8.082031 -6.3125 6.3125 -6.3125 Z M 3.34375 -7.75 L 6.046875 -7.75 C 6.816406 -7.75 7.4375 -7.941406 7.90625 -8.328125 C 8.375 -8.722656 8.609375 -9.253906 8.609375 -9.921875 C 8.609375 -10.660156 8.390625 -11.195312 7.953125 -11.53125 C 7.523438 -11.875 6.867188 -12.046875 5.984375 -12.046875 L 3.34375 -12.046875 Z M 3.34375 -7.75 "/></g></g></g><g fill="#49454e" fill-opacity="1"><g transform="translate(124.399418, 17.795211)"><g><path d="M 6.15625 -8.5 C 5.894531 -8.539062 5.613281 -8.5625 5.3125 -8.5625 C 4.1875 -8.5625 3.421875 -8.082031 3.015625 -7.125 L 3.015625 0 L 1.296875 0 L 1.296875 -10.03125 L 2.96875 -10.03125 L 3 -8.875 C 3.5625 -9.769531 4.359375 -10.21875 5.390625 -10.21875 C 5.722656 -10.21875 5.976562 -10.175781 6.15625 -10.09375 Z M 6.15625 -8.5 "/></g></g></g><g fill="#49454e" fill-opacity="1"><g transform="translate(130.823094, 17.795211)"><g><path d="M 7.5 0 C 7.394531 -0.195312 7.3125 -0.550781 7.25 -1.0625 C 6.457031 -0.226562 5.503906 0.1875 4.390625 0.1875 C 3.398438 0.1875 2.585938 -0.09375 1.953125 -0.65625 C 1.328125 -1.21875 1.015625 -1.925781 1.015625 -2.78125 C 1.015625 -3.820312 1.410156 -4.632812 2.203125 -5.21875 C 2.992188 -5.800781 4.113281 -6.09375 5.5625 -6.09375 L 7.234375 -6.09375 L 7.234375 -6.875 C 7.234375 -7.476562 7.050781 -7.957031 6.6875 -8.3125 C 6.332031 -8.664062 5.804688 -8.84375 5.109375 -8.84375 C 4.492188 -8.84375 3.976562 -8.6875 3.5625 -8.375 C 3.144531 -8.0625 2.9375 -7.6875 2.9375 -7.25 L 1.21875 -7.25 C 1.21875 -7.75 1.394531 -8.234375 1.75 -8.703125 C 2.101562 -9.171875 2.582031 -9.539062 3.1875 -9.8125 C 3.800781 -10.082031 4.472656 -10.21875 5.203125 -10.21875 C 6.359375 -10.21875 7.265625 -9.925781 7.921875 -9.34375 C 8.578125 -8.769531 8.914062 -7.976562 8.9375 -6.96875 L 8.9375 -2.34375 C 8.9375 -1.425781 9.054688 -0.695312 9.296875 -0.15625 L 9.296875 0 Z M 4.640625 -1.3125 C 5.179688 -1.3125 5.691406 -1.445312 6.171875 -1.71875 C 6.660156 -2 7.015625 -2.363281 7.234375 -2.8125 L 7.234375 -4.875 L 5.875 -4.875 C 3.78125 -4.875 2.734375 -4.257812 2.734375 -3.03125 C 2.734375 -2.488281 2.910156 -2.066406 3.265625 -1.765625 C 3.617188 -1.460938 4.078125 -1.3125 4.640625 -1.3125 Z M 4.640625 -1.3125 "/></g></g></g><g fill="#49454e" fill-opacity="1"><g transform="translate(141.149176, 17.795211)"><g><path d="M 3.15625 0 L 1.453125 0 L 1.453125 -10.03125 L 3.15625 -10.03125 Z M 1.3125 -12.703125 C 1.3125 -12.984375 1.394531 -13.21875 1.5625 -13.40625 C 1.726562 -13.59375 1.976562 -13.6875 2.3125 -13.6875 C 2.65625 -13.6875 2.910156 -13.59375 3.078125 -13.40625 C 3.253906 -13.21875 3.34375 -12.984375 3.34375 -12.703125 C 3.34375 -12.421875 3.253906 -12.1875 3.078125 -12 C 2.910156 -11.820312 2.65625 -11.734375 2.3125 -11.734375 C 1.976562 -11.734375 1.726562 -11.820312 1.5625 -12 C 1.394531 -12.1875 1.3125 -12.421875 1.3125 -12.703125 Z M 1.3125 -12.703125 "/></g></g></g><g fill="#49454e" fill-opacity="1"><g transform="translate(145.756055, 17.795211)"><g><path d="M 2.921875 -10.03125 L 2.984375 -8.78125 C 3.742188 -9.738281 4.742188 -10.21875 5.984375 -10.21875 C 8.109375 -10.21875 9.175781 -9.023438 9.1875 -6.640625 L 9.1875 0 L 7.484375 0 L 7.484375 -6.640625 C 7.472656 -7.367188 7.304688 -7.90625 6.984375 -8.25 C 6.660156 -8.59375 6.15625 -8.765625 5.46875 -8.765625 C 4.90625 -8.765625 4.414062 -8.613281 4 -8.3125 C 3.582031 -8.019531 3.253906 -7.632812 3.015625 -7.15625 L 3.015625 0 L 1.296875 0 L 1.296875 -10.03125 Z M 2.921875 -10.03125 "/></g></g></g></g></g></g></g></g></g></g></g></g></svg>